<svg width="19" height="12" viewBox="0 0 19 12" fill="none" xmlns="http://www.w3.org/2000/svg">
<path d="M10.6766 0.986249L18.1703 8.86662C19.0547 9.79381 18.336 11.25 16.9938 11.25L2.00626 11.25C1.70588 11.2502 1.41179 11.1708 1.15921 11.0212C0.906633 10.8717 0.706274 10.6583 0.582123 10.4066C0.457973 10.155 0.415298 9.87575 0.459208 9.60237C0.503117 9.32899 0.631748 9.07304 0.8297 8.86519L8.32345 0.987687C8.47011 0.833286 8.65097 0.709537 8.8539 0.624747C9.05684 0.539958 9.27713 0.496091 9.50001 0.496091C9.72289 0.496091 9.94319 0.539958 10.1461 0.624747C10.3491 0.709537 10.5299 0.833286 10.6766 0.987687V0.986249Z" fill="#F2F5EA"/>
</svg>
