<svg width="34" height="34" viewBox="0 0 34 34" fill="none" xmlns="http://www.w3.org/2000/svg">
<path d="M12.75 2.83325H5.66668C4.10187 2.83325 2.83334 4.10178 2.83334 5.66659V15.5833C2.83334 17.1481 4.10187 18.4166 5.66668 18.4166H12.75C14.3148 18.4166 15.5833 17.1481 15.5833 15.5833V5.66659C15.5833 4.10178 14.3148 2.83325 12.75 2.83325Z" fill="#F2F5EA"/>
<path d="M28.3333 2.83325H21.25C19.6852 2.83325 18.4167 4.10178 18.4167 5.66659V9.91659C18.4167 11.4814 19.6852 12.7499 21.25 12.7499H28.3333C29.8981 12.7499 31.1667 11.4814 31.1667 9.91659V5.66659C31.1667 4.10178 29.8981 2.83325 28.3333 2.83325Z" fill="#F2F5EA"/>
<path d="M12.75 21.25H5.66668C4.10187 21.25 2.83334 22.5185 2.83334 24.0833V28.3333C2.83334 29.8981 4.10187 31.1667 5.66668 31.1667H12.75C14.3148 31.1667 15.5833 29.8981 15.5833 28.3333V24.0833C15.5833 22.5185 14.3148 21.25 12.75 21.25Z" fill="#F2F5EA"/>
<path d="M28.3333 15.5833H21.25C19.6852 15.5833 18.4167 16.8518 18.4167 18.4166V28.3333C18.4167 29.8981 19.6852 31.1666 21.25 31.1666H28.3333C29.8981 31.1666 31.1667 29.8981 31.1667 28.3333V18.4166C31.1667 16.8518 29.8981 15.5833 28.3333 15.5833Z" fill="#F2F5EA"/>
</svg>
