<svg width="23" height="23" viewBox="0 0 23 23" fill="none" xmlns="http://www.w3.org/2000/svg">
<circle cx="11.5" cy="11.5" r="11.5" fill="#222222"/>
<path d="M11.01 3C6.60451 3 3 6.76286 3 11.3619C3 15.961 6.60451 19.7238 11.01 19.7238C13.2128 19.7238 15.2553 18.8249 16.6971 17.2989L15.2553 15.7937C14.174 16.9226 12.6721 17.6334 10.99 17.6334C7.66583 17.6334 4.98248 14.8321 4.98248 11.3619C4.98248 7.89172 7.66583 5.09048 10.99 5.09048C12.6521 5.09048 14.0939 5.84305 15.1752 6.99282L12.9925 9.27144H19V3L16.617 5.48767C15.1752 3.98253 13.1927 3 10.99 3H11.01Z" fill="white"/>
</svg>
